<svg width="1072" height="550" viewBox="0 0 1072 550" fill="none" xmlns="http://www.w3.org/2000/svg">
<g clip-path="url(#clip0_0_1)">
<g clip-path="url(#clip1_0_1)">
<path d="M679.401 460.4C735.301 455.7 843.601 459.1 881.401 459.7C928.001 460.5 1018.7 462.4 1042.9 468.7C1067.1 475 1078.7 491.5 930.001 491.5C745.601 491.6 662.001 489 649.801 486.4C625.201 481 632.601 464.4 679.401 460.4Z" fill="#EEEDED"/>
</g>
<path d="M981.494 363.861H707.648V405.195H981.494V363.861Z" fill="#020507"/>
<path d="M746.418 462.685C746.418 467.925 742.191 472.146 736.945 472.146H713.043C707.797 472.146 703.57 467.925 703.57 462.685V414.656C703.57 409.416 707.797 405.195 713.043 405.195H736.945C742.191 405.195 746.418 409.416 746.418 414.656V462.685Z" fill="#302C2C"/>
<path d="M714.792 413.928H713.48V472H714.792V413.928Z" fill="black"/>
<path d="M718.874 413.928H717.562V472H718.874V413.928Z" fill="black"/>
<path d="M736.8 413.928H735.488V472H736.8V413.928Z" fill="black"/>
<path d="M732.573 413.928H731.262V472H732.573V413.928Z" fill="black"/>
<path d="M942.438 462.685C942.438 467.925 946.664 472.146 951.911 472.146H975.812C981.059 472.146 985.285 467.925 985.285 462.685V414.656C985.285 409.416 981.059 405.195 975.812 405.195H951.911C946.664 405.195 942.438 409.416 942.438 414.656V462.685Z" fill="#302C2C"/>
<path d="M975.523 413.928H974.211V472H975.523V413.928Z" fill="black"/>
<path d="M971.441 413.928H970.129V472H971.441V413.928Z" fill="black"/>
<path d="M953.659 413.928H952.348V472H953.659V413.928Z" fill="black"/>
<path d="M957.741 413.928H956.43V472H957.741V413.928Z" fill="black"/>
<path d="M988.927 22.2686H700.07V329.949H988.927V22.2686Z" fill="#44110D"/>
<path d="M707.649 22.2686H700.07V329.949H707.649V22.2686Z" fill="#F7CB6B"/>
<path d="M988.926 22.2686H981.348V329.949H988.926V22.2686Z" fill="#F7CB6B"/>
<path d="M988.927 329.949H700.07V371.72H988.927V329.949Z" fill="#4E5958"/>
<path d="M981.494 410.29H707.648V452.061H981.494V410.29Z" fill="#6E6663"/>
<path d="M774.544 386.129H714.645V405.195H774.544V386.129Z" fill="#F05B3C"/>
<path d="M878.601 379.143H810.832V397.772H878.601V379.143Z" fill="#FFF9D9"/>
<path d="M987.322 405.195H702.109V420.041H987.322V405.195Z" fill="#5E524E"/>
<path d="M988.927 321.944H700.07V329.949H988.927V321.944Z" fill="#F7CB6B"/>
<path d="M988.927 22.2686H700.07V30.2735H988.927V22.2686Z" fill="#F7CB6B"/>
<path d="M903.085 22.2686H785.91V30.2735H903.085V22.2686Z" fill="#7D8991"/>
<path d="M988.927 13.3901H700.07V22.2683H988.927V13.3901Z" fill="#4E5958"/>
<path d="M724.409 363.861H700.07V375.213H724.409V363.861Z" fill="#302724"/>
<path d="M988.924 363.861H964.586V375.213H988.924V363.861Z" fill="#302724"/>
<path d="M774.543 386.129H757.637V405.195H774.543V386.129Z" fill="#F9ECEE"/>
<path d="M974.645 386.129H914.746V405.195H974.645V386.129Z" fill="#F05B3C"/>
<path d="M931.652 386.129H914.746V405.195H931.652V386.129Z" fill="#F9ECEE"/>
<path d="M716.102 160.099H700.07V185.423H716.102V160.099Z" fill="#7D8991"/>
<path d="M716.102 42.79H700.07V68.1147H716.102V42.79Z" fill="#7D8991"/>
<path d="M716.102 277.407H700.07V302.732H716.102V277.407Z" fill="#7D8991"/>
<path d="M988.926 160.099H972.895V185.423H988.926V160.099Z" fill="#7D8991"/>
<path d="M988.926 42.79H972.895V68.1147H988.926V42.79Z" fill="#7D8991"/>
<path d="M988.926 277.407H972.895V302.732H988.926V277.407Z" fill="#7D8991"/>
<path d="M707.649 321.944L622.828 337.663V0L707.649 30.2732V321.944Z" fill="#434F54"/>
<path d="M622.83 0H617V337.663H622.83V0Z" fill="#419694"/>
<path d="M981.352 321.944L1066.17 337.663V0L981.352 30.2732V321.944Z" fill="#434F54"/>
<path d="M1072 0H1066.17V337.663H1072V0Z" fill="#419694"/>
<path d="M953.077 89.2188H887.494C880.061 89.2188 874.086 93.8762 874.086 99.5524V164.756V165.775V265.764C874.086 266.492 874.086 267.074 874.232 267.802V281.628H887.64H953.223H966.631V267.802H966.485C966.631 267.074 966.631 266.492 966.631 265.764V165.775V164.756V99.5524C966.485 93.8762 960.51 89.2188 953.077 89.2188Z" fill="#DADADA"/>
<path d="M964.594 267.656H872.195V281.482H964.594V267.656Z" fill="#A3B7B0"/>
<path d="M964.594 164.756V99.5524C964.594 93.8762 958.619 89.2188 951.186 89.2188H885.603C878.171 89.2188 872.195 93.8762 872.195 99.5524V164.756H964.594Z" fill="#F0F7F4"/>
<path d="M964.592 165.629V265.618C964.592 274.351 958.616 281.337 951.184 281.337H885.601C882.977 281.337 880.5 280.464 878.314 278.863C874.524 276.098 872.047 271.149 872.047 265.473V165.484H964.592V165.629Z" fill="#F0F7F4"/>
<path d="M882.103 276.825C882.103 277.699 881.374 278.281 880.354 278.281C879.334 278.281 878.605 277.553 878.605 276.825V96.6415C878.605 95.7682 879.334 95.186 880.354 95.186C881.374 95.186 882.103 95.9138 882.103 96.6415V276.825Z" fill="white"/>
<path d="M964.592 164.756H872.047V165.775H964.592V164.756Z" fill="#91A69E"/>
<path d="M909.502 158.352C909.502 159.516 908.482 160.39 907.17 160.39H880.937C879.626 160.39 878.605 159.516 878.605 158.352C878.605 157.188 879.626 156.314 880.937 156.314H907.17C908.482 156.314 909.502 157.188 909.502 158.352Z" fill="#B7D1D0"/>
<path d="M883.122 159.517C883.122 160.099 882.685 160.39 882.102 160.39C881.519 160.39 881.082 159.954 881.082 159.517V157.334C881.082 156.752 881.519 156.46 882.102 156.46C882.685 156.46 883.122 156.897 883.122 157.334V159.517Z" fill="white"/>
<path d="M909.502 171.742C909.502 172.907 908.482 173.78 907.17 173.78H880.937C879.626 173.78 878.605 172.907 878.605 171.742C878.605 170.578 879.626 169.705 880.937 169.705H907.17C908.482 169.705 909.502 170.578 909.502 171.742Z" fill="#B7D1D0"/>
<path d="M883.122 172.761C883.122 173.343 882.685 173.634 882.102 173.634C881.519 173.634 881.082 173.198 881.082 172.761V170.578C881.082 169.996 881.519 169.705 882.102 169.705C882.685 169.705 883.122 170.141 883.122 170.578V172.761Z" fill="white"/>
<path d="M764.342 135.065H724.555V141.76H764.342V135.065Z" fill="#4F88A8"/>
<path opacity="0.5" d="M764.342 140.159H724.555V141.76H764.342V140.159Z" fill="#4F88A8"/>
<path d="M753.851 136.084H752.977V140.596H753.851V136.084Z" fill="#B9ECEE"/>
<path d="M750.933 136.084H750.059V140.596H750.933V136.084Z" fill="#B9ECEE"/>
<path d="M734.319 136.084H726.012V140.596H734.319V136.084Z" fill="#B9ECEE"/>
<path d="M764.342 142.342H724.555V149.037H764.342V142.342Z" fill="#FFC125"/>
<path opacity="0.5" d="M764.342 147.437H724.555V149.038H764.342V147.437Z" fill="#EBC950"/>
<path d="M753.851 143.507H752.977V148.019H753.851V143.507Z" fill="#FFDE9C"/>
<path d="M750.933 143.507H750.059V148.019H750.933V143.507Z" fill="#FFDE9C"/>
<path d="M734.319 143.507H726.012V148.019H734.319V143.507Z" fill="#FFDE9C"/>
<path d="M764.342 149.619H724.555V156.314H764.342V149.619Z" fill="#F05B3C"/>
<path opacity="0.5" d="M764.342 154.713H724.555V156.314H764.342V154.713Z" fill="#EBC950"/>
<path d="M753.851 150.784H752.977V155.296H753.851V150.784Z" fill="#F6B5C1"/>
<path d="M750.933 150.784H750.059V155.296H750.933V150.784Z" fill="#F6B5C1"/>
<path d="M734.319 150.784H726.012V155.296H734.319V150.784Z" fill="#F6B5C1"/>
<path d="M768.526 136.634L764.289 139.965L783.943 164.895L788.18 161.563L768.526 136.634Z" fill="#4F88A8"/>
<path opacity="0.5" d="M768.491 136.598L767.461 137.409L787.124 162.332L788.154 161.521L768.491 136.598Z" fill="#4F88A8"/>
<path d="M773.058 143.733L770.195 145.984L770.646 146.556L773.509 144.305L773.058 143.733Z" fill="#B9ECEE"/>
<path d="M774.55 145.621L771.688 147.872L772.138 148.444L775.001 146.193L774.55 145.621Z" fill="#B9ECEE"/>
<path d="M782.667 155.843L779.805 158.094L783.952 163.353L786.815 161.102L782.667 155.843Z" fill="#B9ECEE"/>
<path d="M775.636 136.312L771.398 139.643L791.049 164.575L795.286 161.244L775.636 136.312Z" fill="#FFC125"/>
<path opacity="0.5" d="M775.488 136.353L774.457 137.163L794.104 162.098L795.135 161.288L775.488 136.353Z" fill="#EBC950"/>
<path d="M780.05 143.465L777.188 145.716L777.638 146.288L780.501 144.037L780.05 143.465Z" fill="#FFDE9C"/>
<path d="M781.531 145.369L778.668 147.62L779.119 148.191L781.982 145.941L781.531 145.369Z" fill="#FFDE9C"/>
<path d="M789.679 155.602L786.816 157.853L790.964 163.113L793.827 160.862L789.679 155.602Z" fill="#FFDE9C"/>
<path d="M964.591 240.439V265.618C964.591 274.351 958.615 281.337 951.182 281.337H925.969L878.458 278.863C874.669 276.098 872.191 271.149 872.191 265.473V225.303H918.537V240.294H964.591V240.439Z" fill="#C6C6C6"/>
<path d="M834.876 113.67H832.398V274.933H834.876V113.67Z" fill="#594C4E"/>
<path d="M849.015 112.942H848.141V131.718H849.015V112.942Z" fill="#754365"/>
<path d="M851.055 132.154C851.055 133.609 849.889 134.774 848.432 134.774C846.975 134.774 845.809 133.609 845.809 132.154C845.809 130.699 846.975 129.534 848.432 129.534C849.889 129.534 851.055 130.699 851.055 132.154Z" fill="#754365"/>
<path d="M867.524 114.689C867.524 114.689 864.318 114.834 859.946 114.834C859.654 114.834 859.363 114.834 859.071 114.834C856.011 114.98 852.367 114.98 849.015 115.125C848.724 115.125 848.432 115.125 848.141 115.125H847.995C847.704 115.125 847.412 115.125 847.121 115.125C842.02 115.271 837.502 115.417 835.17 115.417C835.024 115.417 835.024 115.417 834.878 115.417C834.733 115.417 834.587 115.417 834.441 115.417H834.295C833.858 115.417 833.13 115.417 832.401 115.417C829.778 115.417 825.551 115.417 821.033 115.417C820.742 115.417 820.45 115.417 820.159 115.417C816.369 115.417 812.58 115.417 809.082 115.417C808.791 115.417 808.5 115.417 808.208 115.417C803.253 115.417 799.609 115.417 799.609 115.417L813.017 66.3682C813.017 66.3682 814.766 66.3682 817.244 66.3682C817.535 66.3682 817.827 66.3682 818.118 66.3682C819.721 66.3682 821.616 66.3682 823.656 66.3682C823.948 66.3682 824.239 66.3682 824.531 66.3682C826.717 66.3682 828.903 66.3682 830.798 66.3682C831.089 66.3682 831.381 66.3682 831.672 66.3682C831.964 66.3682 832.255 66.3682 832.547 66.3682C835.17 66.5137 837.793 66.5137 840.271 66.5137C840.562 66.5137 840.854 66.5137 841.145 66.5137C843.623 66.5137 845.809 66.5137 847.704 66.5137C847.995 66.5137 848.286 66.5137 848.578 66.5137C851.056 66.5137 852.659 66.3682 852.659 66.3682L867.524 114.689Z" fill="#F7B75C"/>
<path d="M818.265 66.5137C818.119 69.279 817.099 72.6265 816.37 74.8097C815.35 77.7206 813.164 91.2562 811.561 102.172C810.686 107.557 809.957 112.506 809.374 115.708C809.083 115.708 808.791 115.708 808.5 115.708C809.083 112.506 809.812 107.412 810.686 102.172C812.581 90.674 814.621 77.7206 815.641 74.6641C816.37 72.481 817.39 69.279 817.536 66.6592C817.682 66.5137 817.973 66.5137 818.265 66.5137Z" fill="#F2D291"/>
<path d="M824.674 66.5137C824.237 76.8473 823.363 87.181 822.342 97.2235C822.197 99.2611 821.905 101.299 821.759 103.482C821.614 105.374 821.614 107.266 821.468 109.158C821.468 111.341 821.322 113.67 821.031 115.853C820.739 115.853 820.448 115.853 820.156 115.853C820.448 113.67 820.448 111.341 820.593 109.158C820.593 107.266 820.739 105.374 820.885 103.482C821.031 101.444 821.322 99.4067 821.468 97.2235C822.342 87.181 823.363 76.8473 823.8 66.6592C824.091 66.5137 824.383 66.5137 824.674 66.5137Z" fill="#F2D291"/>
<path d="M835.169 115.562C835.023 115.562 835.023 115.562 834.878 115.562C834.732 115.562 834.586 115.562 834.44 115.562H834.295C834.295 114.98 834.149 114.543 834.149 113.961C834.149 113.816 834.149 113.816 834.149 113.67C833.857 109.595 833.566 105.374 833.42 101.153C833.129 94.3126 832.837 87.181 832.254 79.7582C832.109 78.0117 831.817 76.2651 831.671 74.5186C831.38 71.8988 831.088 69.1335 830.797 66.5137C831.088 66.5137 831.38 66.5137 831.671 66.5137C831.817 69.1335 832.109 71.7533 832.4 74.5186C832.546 76.2651 832.837 78.0117 832.983 79.7582C833.712 87.0354 833.857 94.1671 834.149 101.153C834.295 105.374 834.586 109.74 834.878 113.961C835.169 114.398 835.169 114.98 835.169 115.562Z" fill="#F2D291"/>
<path d="M847.998 115.271C847.706 115.271 847.415 115.271 847.123 115.271C846.686 112.069 846.249 108.139 845.957 105.956C845.812 104.646 845.666 103.482 845.52 102.9C845.083 99.4066 844.646 95.768 844.208 92.275C843.771 88.7819 843.334 85.2888 842.897 81.6502C842.46 78.4483 841.877 75.2463 841.294 72.1899C841.002 70.4433 840.565 68.5513 840.273 66.6592C840.565 66.6592 840.856 66.6592 841.148 66.6592C841.439 68.4057 841.731 70.2978 842.168 72.0443C842.751 75.1007 843.334 78.3027 843.771 81.6502C844.208 85.1433 844.646 88.7819 845.083 92.275C845.52 95.768 845.957 99.4066 846.395 102.9C846.395 103.482 846.54 104.501 846.832 105.811C847.415 109.886 847.706 112.942 847.998 115.271Z" fill="#F2D291"/>
<path d="M859.948 114.834C859.657 114.834 859.365 114.834 859.074 114.834C855.722 98.2423 850.621 74.6641 847.852 66.6592C848.143 66.6592 848.435 66.6592 848.726 66.6592C852.37 77.4295 858.782 109.013 859.948 114.834Z" fill="#F2D291"/>
<path d="M919.993 232.579C919.993 232.579 897.258 221.518 900.319 202.015C900.319 202.015 924.074 207.837 919.993 232.579Z" fill="#73792C"/>
<path d="M945.06 182.949C941.854 184.113 936.899 185.714 936.899 185.714L943.02 189.644C941.271 194.592 939.522 199.395 937.627 203.762C934.858 204.781 930.632 206.673 930.632 206.673L935.295 209.001C928.883 223.41 927.28 233.744 927.28 233.744L920.867 233.016V232.434C920.867 232.434 923.782 202.015 925.239 194.01C925.239 193.574 925.385 193.283 925.531 192.7C927.28 182.803 932.381 149.91 945.351 145.253C945.497 145.544 950.598 161.117 945.06 182.949Z" fill="#73792C"/>
<path d="M925.821 205.363C924.364 225.448 922.907 231.415 922.178 233.307C921.741 234.181 921.595 234.035 921.595 234.035L918.534 233.307C918.534 233.307 912.996 224.575 909.353 212.058H914.891L908.187 207.983C907.312 204.635 906.729 201.142 906.292 197.649L911.685 198.668L906.001 193.865C905.564 184.841 906.875 175.09 911.685 165.92C911.685 165.92 923.198 173.052 925.53 193.137C926.113 196.63 926.113 200.705 925.821 205.363Z" fill="#95A550"/>
<path d="M926.117 233.889C926.117 233.889 935.153 182.075 971.588 176.981C971.588 176.981 975.814 214.241 927.72 233.889H926.117Z" fill="#95A550"/>
<path d="M922.323 233.162H922.031C923.489 217.734 944.329 147.582 944.621 146.854L944.912 147C944.767 147.582 923.926 217.734 922.323 233.162Z" fill="#2C4D3C"/>
<path d="M919.849 232.579C918.537 215.405 911.833 167.812 911.688 167.375H911.979C911.979 167.812 918.829 215.405 920.14 232.579H919.849Z" fill="#2C4D3C"/>
<path d="M927.862 234.035L927.57 233.889C931.651 222.974 969.835 178.583 970.126 178L970.418 178.292C969.981 178.728 931.943 223.119 927.862 234.035Z" fill="#2C4D3C"/>
<path d="M948.996 240.293C948.996 241.312 948.704 242.331 948.559 243.495C948.267 244.951 947.83 246.552 947.247 248.007C946.956 248.88 946.518 249.754 946.227 250.481C942.583 258.195 936.608 264.745 933.547 267.219H914.456C911.395 264.745 906.148 258.05 902.651 250.481C902.213 249.608 901.922 248.735 901.63 248.007C901.193 246.697 900.756 245.387 900.319 244.077C900.173 243.495 900.027 242.913 899.882 242.331C899.153 238.547 899.299 234.763 900.61 231.415H947.247C948.704 234.18 949.142 237.237 948.996 240.293Z" fill="#45818D"/>
<path d="M948.997 240.293C948.997 241.312 948.706 242.331 948.56 243.495C947.685 244.514 946.811 245.387 946.082 245.533C945.937 245.533 945.791 245.533 945.645 245.533C944.188 245.533 943.313 244.223 942.73 243.059C942.002 241.749 941.419 241.021 940.544 240.875C939.378 240.875 938.65 241.749 937.775 243.204C937.192 244.223 936.464 245.242 935.298 245.387C934.423 245.387 933.403 244.805 932.237 243.495C931.654 242.767 931.363 242.331 931.071 241.749C930.488 240.73 930.342 240.584 929.614 240.73C929.031 240.875 928.156 241.749 927.573 242.476C926.407 243.786 924.95 245.242 923.055 244.66C921.744 244.223 921.161 243.204 920.578 242.185C919.849 240.875 919.266 240.148 917.955 240.293C916.497 240.439 915.623 241.312 914.894 242.331C914.02 243.35 912.854 244.514 911.105 244.368C909.793 244.223 908.627 243.204 907.607 242.185C906.878 241.458 906.15 240.584 905.421 240.439C904.109 240.148 903.235 241.021 901.923 242.476C901.486 243.059 900.903 243.641 900.32 244.077C900.174 243.495 900.029 242.913 899.883 242.331C900.174 242.04 900.32 241.894 900.612 241.603C901.923 240.148 903.235 238.547 905.567 238.983C906.733 239.274 907.753 240.148 908.627 241.166C909.502 242.04 910.23 242.913 910.959 242.913C911.833 243.059 912.416 242.476 913.437 241.458C914.311 240.439 915.477 239.129 917.663 238.983C920.141 238.692 921.015 240.439 921.744 241.603C922.181 242.331 922.618 243.204 923.347 243.35C924.076 243.641 924.95 242.767 926.116 241.603C926.99 240.584 928.011 239.565 929.177 239.42C931.071 239.129 931.654 240.148 932.383 241.166C932.674 241.603 932.966 242.185 933.403 242.767C934.423 244.077 935.006 244.077 935.006 244.077C935.298 244.077 935.881 243.204 936.172 242.767C937.046 241.458 938.067 239.711 940.398 239.711C942.293 239.711 943.313 241.312 944.042 242.622C944.771 243.786 945.208 244.368 945.791 244.368C946.374 243.786 948.706 240.875 948.997 240.293Z" fill="#93B8BF"/>
<path d="M947.244 248.007C946.953 248.88 946.516 249.753 946.224 250.481C945.495 250.481 944.767 250.481 944.038 250.481C936.605 250.627 926.403 250.772 917.222 250.772C911.684 250.772 906.583 250.627 902.794 250.481C902.356 249.608 902.065 248.735 901.773 248.007C911.684 248.589 931.796 248.298 944.038 248.007C945.058 248.007 946.224 248.007 947.244 248.007Z" fill="#93B8BF"/>
<path d="M871.314 171.015H797.133V236.073H871.314V171.015Z" fill="#F7B977"/>
<path d="M839.103 171.015H829.484V236.073H839.103V171.015Z" fill="#F6E3A7"/>
<path d="M797.133 171.015H789.117V235.927H797.133V171.015Z" fill="#D6A55C"/>
<path d="M871.314 171.015H797.133V172.761H871.314V171.015Z" fill="#F7B977"/>
<path d="M806.609 171.015H812.147L821.183 235.927H806.609V171.015Z" fill="#C6C6C6"/>
<path d="M972.603 256.886H898.422V321.944H972.603V256.886Z" fill="#F7B977"/>
<path d="M940.541 256.886H930.922V321.944H940.541V256.886Z" fill="#F6E3A7"/>
<path d="M898.57 256.886H890.555V321.798H898.57V256.886Z" fill="#D6A55C"/>
<path d="M972.603 256.886H898.422V258.632H972.603V256.886Z" fill="#F7B977"/>
<path d="M799.322 256.886H725.141V321.944H799.322V256.886Z" fill="#F7B977"/>
<path d="M767.259 256.886H757.641V321.944H767.259V256.886Z" fill="#F6E3A7"/>
<path d="M725.285 256.886H717.27V321.798H725.285V256.886Z" fill="#D6A55C"/>
<path d="M799.322 256.886H725.141V258.632H799.322V256.886Z" fill="#F7B977"/>
<path d="M907.898 256.886H913.582L922.618 321.944H907.898V256.886Z" fill="#C6C6C6"/>
<path d="M799.322 155.878H725.141V256.886H799.322V155.878Z" fill="#F7B977"/>
<path d="M767.259 155.878H757.641V256.886H767.259V155.878Z" fill="#F6E3A7"/>
<path d="M725.285 155.878H717.27V256.886H725.285V155.878Z" fill="#D6A55C"/>
<path d="M799.322 155.878H725.141V158.643H799.322V155.878Z" fill="#F7B977"/>
<path d="M907.895 235.927H809.812V321.944H907.895V235.927Z" fill="#F7B977"/>
<path d="M865.34 235.927H852.66V321.944H865.34V235.927Z" fill="#F6E3A7"/>
<path d="M809.814 235.927H799.32V321.798H809.814V235.927Z" fill="#F7B977"/>
<path d="M799.32 321.798L817.101 321.944L809.814 235.927H799.32V321.798Z" fill="#C6C6C6"/>
<path d="M907.895 235.927H809.812V238.256H907.895V235.927Z" fill="#F7B977"/>
</g>
<g clip-path="url(#clip2_0_1)">
<g clip-path="url(#clip3_0_1)">
<path opacity="0.42" d="M184.329 510.381C261.317 505.719 410.284 509.091 462.489 509.686C526.558 510.48 651.532 512.365 684.885 518.614C718.237 524.863 731.157 544.901 526.558 544.901C272.655 544.901 138.584 536.668 121.842 534.089C87.6982 528.831 119.996 514.349 184.329 510.381Z" fill="#D8D7D7"/>
</g>
<path d="M155.81 503.79C154.769 506.656 155.55 509.391 157.242 510.694C158.935 511.997 165.706 512.778 166.878 513.951C168.18 514.993 169.612 518.51 174.3 518.901C178.987 519.292 186.279 516.296 187.451 514.472C188.622 512.648 186.669 510.824 185.497 509.782C184.195 508.61 155.81 503.79 155.81 503.79Z" fill="#23201D"/>
<path d="M157.633 495.583C155.55 497.147 155.289 501.576 155.68 503.79C156.071 506.005 156.982 507.959 159.456 508.871C161.93 509.782 165.055 510.173 166.878 512.388C168.961 514.863 171.435 517.468 175.602 516.556C179.768 515.775 187.06 513.43 186.279 510.825C185.758 509.131 183.544 509.131 181.201 507.307C178.857 505.614 173.649 501.445 172.737 500.143C171.695 498.84 171.305 497.798 170.393 496.626C168.05 496.626 167.268 497.928 165.576 498.84C164.013 499.752 162.06 500.013 160.628 499.491C158.805 498.84 158.545 496.105 157.633 495.583Z" fill="#3F3A33"/>
<path d="M169.479 502.357H169.349C169.219 502.357 169.219 502.227 169.219 502.097C169.219 502.097 170 500.794 172.214 500.013C172.344 500.013 172.474 500.013 172.474 500.143C172.474 500.273 172.474 500.403 172.344 500.403C170.26 501.185 169.609 502.357 169.479 502.357Z" fill="#23201D"/>
<path d="M171.823 504.311H171.693C171.563 504.311 171.562 504.181 171.562 504.051C171.562 504.051 172.344 502.748 174.557 501.966C174.687 501.966 174.818 501.966 174.818 502.097C174.818 502.227 174.818 502.357 174.687 502.357C172.604 503.139 171.953 504.181 171.823 504.311C171.823 504.181 171.823 504.311 171.823 504.311Z" fill="#23201D"/>
<path d="M174.167 506.135H174.036C173.906 506.135 173.906 506.005 173.906 505.874C173.906 505.874 174.687 504.572 176.901 503.79C177.031 503.79 177.161 503.79 177.161 503.92C177.161 504.051 177.161 504.181 177.031 504.181C174.948 504.962 174.167 506.135 174.167 506.135Z" fill="#23201D"/>
<path d="M176.385 508.089H176.255C176.125 508.089 176.125 507.959 176.125 507.828C176.125 507.828 176.906 506.526 179.12 505.744C179.25 505.744 179.38 505.744 179.38 505.874C179.38 506.005 179.38 506.135 179.25 506.135C177.297 506.917 176.516 507.959 176.385 508.089C176.516 507.959 176.516 508.089 176.385 508.089Z" fill="#23201D"/>
<path d="M177.034 513.821C176.904 513.821 176.774 513.69 176.774 513.69C176.513 511.085 180.55 508.61 182.242 508.219C182.373 508.219 182.503 508.219 182.503 508.349C182.503 508.48 182.503 508.61 182.373 508.61C180.81 509.131 177.034 511.476 177.295 513.69C177.295 513.69 177.164 513.821 177.034 513.821Z" fill="#23201D"/>
<path d="M137.841 514.863C136.669 517.859 137.58 520.855 139.273 522.158C141.096 523.46 145.132 524.372 146.564 525.545C147.866 526.717 152.424 530.364 157.372 530.755C162.189 531.146 169.871 528.02 171.174 526.066C172.476 524.112 170.392 522.288 169.09 521.116C167.788 519.943 137.841 514.863 137.841 514.863Z" fill="#23201D"/>
<path d="M139.922 506.265C137.708 507.959 137.448 512.518 137.838 514.863C138.229 517.207 139.271 519.292 141.875 520.204C144.479 521.246 147.343 522.418 149.166 524.633C151.38 527.238 154.375 529.192 158.802 528.28C163.229 527.368 170.781 525.023 169.999 522.288C169.479 520.464 167.135 520.464 164.661 518.64C162.187 516.817 156.718 512.518 155.677 511.085C154.635 509.652 154.114 508.61 153.203 507.307C150.729 507.307 149.817 508.74 148.125 509.652C146.432 510.564 144.479 510.824 142.916 510.303C141.093 509.652 140.833 506.916 139.922 506.265Z" fill="#3F3A33"/>
<path d="M152.292 513.43H152.161C152.031 513.43 152.031 513.169 152.031 513.169C152.031 513.169 152.812 511.867 155.156 511.085C155.286 511.085 155.417 511.085 155.417 511.215C155.417 511.346 155.417 511.476 155.286 511.476C153.073 512.127 152.422 513.299 152.292 513.43Z" fill="#23201D"/>
<path d="M154.768 515.384H154.638C154.508 515.384 154.508 515.123 154.508 515.123C154.508 515.123 155.289 513.821 157.633 513.039C157.763 513.039 157.893 513.039 157.893 513.169C157.893 513.3 157.893 513.43 157.763 513.43C155.549 514.211 154.898 515.254 154.768 515.384Z" fill="#23201D"/>
<path d="M157.112 517.468H156.982C156.852 517.468 156.852 517.207 156.852 517.207C156.852 517.207 157.633 515.905 159.977 515.123C160.107 515.123 160.237 515.123 160.237 515.253C160.237 515.384 160.237 515.514 160.107 515.514C158.023 516.165 157.242 517.338 157.112 517.468C157.242 517.338 157.242 517.338 157.112 517.468Z" fill="#23201D"/>
<path d="M159.585 519.422H159.454C159.324 519.422 159.324 519.161 159.324 519.161C159.324 519.161 160.105 517.859 162.449 517.077C162.579 517.077 162.71 517.077 162.71 517.207C162.71 517.338 162.71 517.468 162.579 517.468C160.496 518.119 159.715 519.292 159.585 519.422C159.715 519.292 159.715 519.422 159.585 519.422Z" fill="#23201D"/>
<path d="M160.237 525.414C160.106 525.414 159.976 525.284 159.976 525.284C159.716 522.548 164.013 520.073 165.705 519.422C165.835 519.422 165.966 519.422 165.966 519.552C165.966 519.682 165.966 519.813 165.836 519.813C164.143 520.334 160.237 522.809 160.497 525.154C160.497 525.284 160.367 525.414 160.237 525.414Z" fill="#23201D"/>
<path d="M134.459 348.904C133.938 356.72 136.932 393.716 138.365 402.053C139.797 410.39 141.36 419.899 139.797 431.493C138.104 443.217 137.063 501.575 137.453 507.177C140.578 511.085 158.286 509.131 158.286 509.131V498.84L171.568 499.1C171.568 499.1 172.349 452.596 173.26 448.427C174.042 444.259 177.427 435.791 178.599 429.148C179.771 422.504 188.104 364.406 188.885 350.989L134.459 348.904Z" fill="#681C12"/>
<path d="M158.547 498.84H157.766C157.896 496.886 160.76 451.944 162.453 448.036C164.146 443.998 168.312 430.19 168.573 425.11C168.703 422.244 169.875 408.696 171.047 395.409C172.088 383.425 173 372.092 173.26 368.314H174.042C173.781 372.092 172.739 383.425 171.828 395.409C170.656 408.566 169.484 422.244 169.354 424.979C169.094 430.19 164.927 444.128 163.234 448.167C161.542 452.205 158.547 498.449 158.547 498.84Z" fill="#300E0C"/>
<path d="M155.681 229.581C152.556 232.447 147.217 237.658 140.056 240.914C132.894 244.041 124.691 253.941 123.129 265.925C121.566 277.779 121.566 277.779 121.566 277.779L133.806 316.338C133.806 316.338 134.717 322.591 135.108 324.154C135.499 325.717 131.332 340.437 132.504 350.077C138.493 354.115 159.066 357.632 167.269 358.544C175.342 359.456 194.222 352.031 194.222 352.031V274.913C194.222 274.913 195.524 262.668 194.222 253.029C192.92 243.389 182.373 235.182 177.295 233.619C172.347 232.056 155.681 229.581 155.681 229.581Z" fill="#447E7F"/>
<path d="M159.716 217.336C159.456 221.765 159.065 226.455 155.68 229.581C155.68 229.581 166.878 242.998 174.169 241.826C181.33 240.523 177.294 233.75 177.294 233.75L178.466 226.585L161.669 215.252L159.716 217.336Z" fill="#EFAA7B"/>
<path d="M146.047 287.289L145.656 286.898C154.38 278.952 154.771 262.929 152.948 256.025L153.469 255.895C154.25 258.891 154.771 264.753 153.729 271.006C153.078 275.956 151.125 282.73 146.047 287.289Z" fill="#284949"/>
<path d="M150.341 271.657L149.82 271.527C150.081 270.485 149.69 265.013 147.867 262.017L148.258 261.757C150.211 264.753 150.602 270.485 150.341 271.657Z" fill="#284949"/>
<path d="M171.174 180.862C180.419 181.643 187.45 187.635 188.101 197.145C188.752 206.654 186.929 231.795 174.82 230.623C162.841 229.451 156.851 220.462 154.508 213.037C152.164 205.612 146.304 178.908 171.174 180.862Z" fill="#EFAA7B"/>
<path d="M175.604 230.884C175.344 230.884 175.083 230.884 174.693 230.884C168.443 230.232 163.365 227.497 159.328 222.807L159.849 222.417C163.625 226.976 168.703 229.581 174.693 230.232C175.604 230.363 176.515 230.232 177.427 229.972L177.557 230.493C177.036 230.753 176.385 230.884 175.604 230.884Z" fill="#B76C39"/>
<path d="M172.086 192.586C177.685 193.758 181.982 192.716 187.841 193.237C193.44 188.417 192.398 177.345 183.154 177.345C173.909 177.345 174.82 179.299 171.826 178.517C168.831 177.736 159.456 177.475 155.81 182.295C152.164 187.115 146.435 187.115 147.086 195.452C147.607 203.789 148.388 202.616 147.998 204.44C147.607 206.264 149.3 210.562 151.383 211.605C153.597 212.647 154.768 211.474 157.763 210.823C159.326 210.562 158.284 207.045 157.893 204.44C157.633 203.007 157.893 200.271 161.669 198.187C165.445 196.103 167.398 193.107 168.701 192.195C170.133 191.283 170.133 192.195 172.086 192.586Z" fill="#1C2F3F"/>
<path d="M182.896 220.072C180.943 225.543 173.781 224.631 172.219 219.03C175.995 220.332 179.51 221.114 182.896 220.072Z" fill="#FCFCFC"/>
<path d="M179.896 217.336C180.156 217.336 180.417 217.336 180.677 217.336C181.328 217.336 181.849 216.946 182.109 216.425C182.5 215.903 182.37 215.122 182.109 214.34C181.458 213.038 181.068 210.172 181.458 209.13L180.807 208.869C180.286 210.172 180.677 213.038 181.458 214.601C181.719 215.252 181.719 215.773 181.589 216.164C181.458 216.555 181.068 216.685 180.677 216.685C179.635 216.815 178.464 216.555 178.073 216.294L177.812 216.815C178.203 217.076 178.984 217.206 179.896 217.336Z" fill="#B76C39"/>
<path d="M184.062 209.129C184.062 210.041 184.583 210.823 185.234 210.823C185.885 210.823 186.536 210.172 186.536 209.129C186.536 208.218 186.016 207.436 185.365 207.436C184.714 207.436 184.062 208.087 184.062 209.129Z" fill="#1C2F3F"/>
<path d="M171.562 208.869C171.562 209.911 172.214 210.693 172.865 210.693C173.646 210.693 174.167 209.911 174.167 208.869C174.167 207.827 173.516 207.045 172.865 207.045C172.214 207.045 171.562 207.827 171.562 208.869Z" fill="#1C2F3F"/>
<path d="M188.363 203.919C187.842 202.746 185.759 202.356 183.806 203.137C181.853 204.049 182.764 205.352 184.327 205.221C185.499 205.091 187.061 204.7 188.363 205.221C188.623 205.352 188.493 204.179 188.363 203.919Z" fill="#1C2F3F"/>
<path d="M175.47 205.352C173.647 205.482 172.085 204.57 169.09 205.091C167.528 205.352 167.267 203.528 169.741 203.007C171.434 202.616 173.387 202.616 175.21 202.877C177.163 203.268 176.903 205.352 175.47 205.352Z" fill="#1C2F3F"/>
<path d="M152.034 210.562C152.424 212.647 153.857 214.21 155.289 213.949C156.721 213.689 156.591 211.865 156.2 209.781C155.81 207.566 155.159 206.003 153.857 206.264C152.424 206.524 151.643 208.478 152.034 210.562Z" fill="#EFAA7B"/>
<path d="M154.51 211.995C154.641 211.995 154.901 211.995 155.031 211.865L154.901 211.474C154.771 211.605 154.51 211.605 154.38 211.474C153.99 211.344 153.729 210.823 153.599 210.302C153.339 209.39 153.469 208.739 153.729 208.348C153.859 208.087 154.12 208.087 154.51 208.087V207.566C153.99 207.566 153.599 207.697 153.208 208.087C152.818 208.609 152.688 209.39 152.948 210.432C153.078 211.084 153.469 211.735 153.99 211.865C154.25 211.995 154.38 211.995 154.51 211.995Z" fill="#B76C39"/>
<path d="M594.344 506.135C594.474 506.265 597.208 514.211 597.208 514.211L606.323 518.249L613.224 514.211L610.099 503.529L594.344 506.135Z" fill="#685451"/>
<path d="M651.896 524.372C653.198 528.019 652.287 531.406 650.203 532.97C648.12 534.533 639.657 535.575 638.094 537.008C636.532 538.31 634.579 542.609 628.849 543.13C623.12 543.521 614.006 539.874 612.443 537.529C610.881 535.184 613.355 532.97 614.917 531.797C616.61 530.364 651.896 524.372 651.896 524.372Z" fill="#23201D"/>
<path d="M613.748 510.955C616.222 513.951 618.175 517.468 616.743 519.552C615.311 521.767 609.321 526.065 607.368 528.019C605.936 529.452 602.811 535.444 597.603 537.789C592.394 540.134 584.712 538.701 582.499 537.008C580.285 535.314 580.676 532.969 581.717 531.276C582.108 530.625 590.702 528.15 596.952 524.242C606.066 518.64 613.748 510.955 613.748 510.955Z" fill="#23201D"/>
<path d="M649.556 514.211C652.16 516.165 652.421 521.637 652.03 524.372C651.64 527.108 650.468 529.583 647.343 530.755C644.218 531.928 640.312 532.449 638.098 535.054C635.494 538.18 632.499 541.307 627.291 540.265C622.083 539.222 613.098 536.357 614.01 533.1C614.661 531.016 617.395 530.885 620.26 528.801C623.124 526.587 629.635 521.506 630.806 519.813C632.108 518.119 632.629 516.947 633.801 515.384C636.796 515.384 637.707 517.077 639.791 518.119C641.744 519.162 644.088 519.552 645.91 518.901C648.124 518.119 648.384 514.863 649.556 514.211Z" fill="#313A3D"/>
<path d="M634.974 522.678C635.104 522.678 635.104 522.678 635.234 522.678C635.365 522.548 635.364 522.418 635.364 522.288C635.364 522.288 634.453 520.724 631.719 519.813C631.589 519.813 631.458 519.812 631.328 519.943C631.328 520.073 631.328 520.203 631.458 520.334C634.062 521.245 634.844 522.678 634.844 522.678C634.844 522.678 634.844 522.678 634.974 522.678Z" fill="#23201D"/>
<path d="M614.269 517.077C613.228 519.552 611.926 521.897 609.191 523.33C606.457 524.763 605.415 526.456 605.415 526.456C602.941 531.667 598.254 535.966 593.176 536.487C588.098 537.008 582.238 535.445 581.718 532.709C581.197 529.974 585.233 525.154 588.358 523.46C591.483 521.767 594.608 514.863 595.52 512.127C597.863 510.434 603.592 510.173 604.894 511.606C606.197 513.039 605.806 514.211 607.238 514.602C608.67 514.993 610.884 513.951 611.014 510.434C611.144 506.917 608.41 504.832 610.493 505.614C612.316 506.395 615.181 511.867 614.269 517.077Z" fill="#313A3D"/>
<path d="M640.83 236.616C634.58 237.658 623.903 240.133 618.825 242.217C613.747 244.301 610.492 253.159 609.19 263.45C607.888 273.872 617.002 346.299 617.002 346.299C617.002 346.299 657.236 356.199 673.252 349.556C675.465 344.475 684.189 292.63 684.189 292.63L689.397 288.07C689.397 288.07 692.913 269.833 691.741 259.933C690.439 250.033 675.335 237.527 667.913 234.401C660.622 231.275 640.83 236.616 640.83 236.616Z" fill="#C15F44"/>
<path d="M609.06 347.341C603.461 355.548 574.294 404.788 571.69 410.39C569.086 415.991 567.394 426.934 569.086 434.359C570.779 441.784 590.831 511.867 590.831 511.867C598.643 514.863 616.872 503.53 616.872 503.53C616.872 503.53 600.857 430.06 600.466 426.933C600.076 423.937 631.846 385.639 633.929 382.122C631.716 396.451 636.924 438.657 640.44 446.083C643.955 453.508 628.591 522.158 628.591 522.158C628.591 522.158 645.778 525.805 654.242 524.502C662.705 523.2 667.002 476.174 666.091 463.538C665.179 450.902 664.528 424.849 666.221 416.512C667.913 408.306 677.939 366.1 673.382 349.556L609.06 347.341Z" fill="#434F54"/>
<path d="M642.395 225.934V236.485H640.703C640.703 236.485 637.968 244.041 646.562 245.343C655.156 246.776 665.182 238.049 667.656 234.271C664.01 232.056 665.182 219.03 665.182 219.03L642.395 225.934Z" fill="#EFAA7B"/>
<path d="M661.013 290.936C660.362 286.246 661.534 270.354 661.534 269.703H662.315C662.315 269.833 661.274 286.246 661.795 290.806L661.013 290.936Z" fill="#6D3529"/>
<path d="M659.971 181.513C651.378 180.211 639.92 183.467 638.227 195.973C636.534 208.478 634.06 226.585 642.654 230.493C651.248 234.401 663.487 226.325 668.174 217.467C672.992 208.478 678.851 184.249 659.971 181.513Z" fill="#EFAA7B"/>
<path d="M647.602 231.796C645.779 231.796 644.086 231.405 642.523 230.753L642.784 230.102C645.909 231.535 649.685 231.405 653.851 229.711C657.627 228.278 661.273 225.543 664.268 222.286L664.789 222.807C661.794 226.194 657.888 228.93 654.112 230.363C651.898 231.405 649.685 231.796 647.602 231.796Z" fill="#B76C39"/>
<path d="M643.437 205.873C643.437 207.045 642.786 207.957 641.875 207.957C640.964 207.957 640.312 207.045 640.312 205.873C640.312 204.7 640.964 203.789 641.875 203.789C642.786 203.789 643.437 204.831 643.437 205.873Z" fill="#1C2F3F"/>
<path d="M657.105 207.306C657.105 208.478 656.454 209.39 655.543 209.39C654.631 209.39 653.98 208.478 653.98 207.306C653.98 206.134 654.631 205.222 655.543 205.222C656.454 205.222 657.105 206.264 657.105 207.306Z" fill="#1C2F3F"/>
<path d="M638.746 200.662C639.266 200.402 639.657 200.271 640.178 200.271C640.699 200.141 641.089 200.141 641.61 200.141C642.131 200.141 642.652 200.141 643.173 200.141C643.693 200.141 644.214 200.271 644.735 200.532C645.256 200.792 645.516 201.314 645.256 201.835C644.995 202.356 644.475 202.616 643.954 202.356C643.954 202.356 643.954 202.356 643.824 202.356C643.173 202.095 642.391 201.835 641.61 201.835C641.219 201.835 640.829 201.835 640.438 201.835C640.048 201.835 639.657 201.965 639.266 202.095C638.876 202.225 638.485 201.965 638.355 201.574C638.225 201.314 638.485 200.923 638.746 200.662Z" fill="#440D09"/>
<path d="M654.762 201.183C655.413 201.183 656.194 201.053 656.845 201.053C657.496 201.053 658.277 201.053 659.059 201.053C659.189 201.053 659.449 201.053 659.579 201.053C659.71 201.053 659.84 201.053 659.97 201.053C660.1 201.053 660.23 201.053 660.23 201.183C660.621 201.313 661.012 201.444 661.272 201.704C661.923 202.095 662.574 202.486 663.095 202.876C663.486 203.137 663.486 203.528 663.225 203.919C662.965 204.309 662.574 204.309 662.184 204.179C661.663 203.788 661.012 203.528 660.491 203.267C660.23 203.137 659.84 203.007 659.579 202.876H659.449H659.319C659.189 202.876 659.059 202.876 658.798 202.876C658.147 202.876 657.496 203.007 656.845 203.007C656.194 203.137 655.543 203.137 654.762 203.267C654.241 203.398 653.72 202.876 653.59 202.355C653.72 201.834 654.111 201.313 654.762 201.183C654.632 201.183 654.632 201.183 654.762 201.183Z" fill="#440D09"/>
<path d="M645.909 215.382C643.956 215.382 642.914 214.34 642.524 213.428C642.393 212.777 642.524 212.256 643.044 211.865C644.086 211.083 645.388 208.999 645.388 207.306H646.169C646.169 209.26 644.737 211.604 643.435 212.386C643.044 212.647 643.044 212.907 643.175 213.168C643.435 213.819 644.346 214.601 645.779 214.601V215.382H645.909Z" fill="#B76C39"/>
<path d="M640.828 218.118C643.042 220.072 650.203 220.072 652.807 218.899C648.901 223.328 643.172 226.194 640.828 218.118Z" fill="#FCFCFC"/>
<path d="M638.615 193.888C638.615 193.888 636.923 182.295 641.87 179.168C646.818 176.172 651.766 174.088 657.105 175.391C662.443 176.693 667.391 175.521 670.386 180.601C673.381 185.551 675.594 185.161 677.287 189.459C679.11 193.758 677.677 207.306 672.73 212.386C671.167 213.949 667.782 210.432 667.782 210.432C667.782 210.432 669.474 199.099 669.344 195.321C669.214 191.413 666.87 187.766 662.834 188.547C658.797 189.329 647.079 189.329 644.475 187.636C641.87 185.942 639.266 191.283 638.615 193.888Z" fill="#440D09"/>
<path d="M673.771 214.601C672.99 217.076 671.037 218.769 669.474 218.248C667.912 217.727 667.261 215.252 668.042 212.777C668.823 210.302 670.776 208.609 672.339 209.13C673.901 209.651 674.552 211.995 673.771 214.601Z" fill="#EFAA7B"/>
<path d="M628.593 531.406C628.332 531.406 628.202 531.276 628.072 531.015C627.03 529.062 623.254 528.15 622.473 528.54C622.213 528.671 621.822 528.54 621.692 528.28C621.561 528.019 621.692 527.629 621.952 527.498C623.384 526.847 627.811 528.019 629.114 530.494C629.244 530.755 629.114 531.146 628.853 531.406C628.723 531.406 628.723 531.406 628.593 531.406Z" fill="white"/>
<path d="M631.327 529.322C631.067 529.322 630.936 529.192 630.806 528.932C629.765 526.978 625.989 526.066 625.207 526.456C624.947 526.587 624.556 526.456 624.426 526.196C624.296 525.935 624.426 525.545 624.687 525.414C626.119 524.763 630.546 525.935 631.848 528.41C631.978 528.671 631.848 529.062 631.587 529.322C631.587 529.322 631.457 529.322 631.327 529.322Z" fill="white"/>
<path d="M634.061 527.238C633.801 527.238 633.671 527.108 633.541 526.847C632.499 524.893 628.723 523.981 627.942 524.372C627.681 524.502 627.291 524.372 627.16 524.111C627.03 523.851 627.16 523.46 627.421 523.33C628.853 522.679 633.28 523.851 634.582 526.326C634.712 526.587 634.582 526.977 634.322 527.238C634.322 527.238 634.192 527.238 634.061 527.238Z" fill="white"/>
<path d="M598.122 523.59C597.862 523.721 597.602 523.59 597.471 523.46C595.909 521.897 592.003 522.288 591.482 522.809C591.221 523.069 590.831 523.069 590.57 522.809C590.31 522.548 590.31 522.157 590.57 521.897C591.742 520.855 596.299 520.594 598.383 522.548C598.643 522.809 598.643 523.2 598.383 523.46C598.253 523.46 598.253 523.59 598.122 523.59Z" fill="white"/>
<path d="M600.075 520.725C599.815 520.855 599.555 520.725 599.424 520.594C597.862 519.031 593.956 519.422 593.435 519.943C593.174 520.204 592.784 520.204 592.523 519.943C592.263 519.683 592.263 519.292 592.523 519.031C593.695 517.989 598.253 517.729 600.336 519.683C600.596 519.943 600.596 520.334 600.336 520.594C600.336 520.725 600.206 520.725 600.075 520.725Z" fill="white"/>
<path d="M602.161 517.989C601.901 518.119 601.641 517.989 601.51 517.859C599.948 516.295 596.042 516.686 595.521 517.207C595.26 517.468 594.87 517.468 594.609 517.207C594.349 516.947 594.349 516.556 594.609 516.295C595.781 515.253 600.338 514.993 602.422 516.947C602.682 517.207 602.682 517.598 602.422 517.859C602.292 517.859 602.292 517.989 602.161 517.989Z" fill="white"/>
<path d="M670.648 215.903C670.388 215.903 670.128 215.903 669.997 215.773C669.737 215.643 669.477 215.512 669.477 215.252C669.477 215.122 669.477 214.991 669.607 214.991C669.737 214.991 669.867 214.991 669.867 215.122C669.867 215.252 669.997 215.382 670.128 215.382C670.518 215.512 670.909 215.512 671.169 215.382C671.43 215.252 671.69 214.991 671.951 214.601C672.081 214.34 672.341 214.079 672.341 213.689C672.471 213.168 672.471 212.777 672.341 212.516C672.211 212.256 672.081 212.125 671.82 211.995C671.56 211.865 671.3 211.865 671.039 211.995C670.909 211.995 670.779 211.995 670.648 211.865C670.648 211.735 670.648 211.604 670.779 211.474C671.169 211.344 671.56 211.344 671.951 211.474C672.341 211.604 672.602 211.865 672.862 212.256C672.992 212.647 672.992 213.168 672.862 213.819C672.732 214.21 672.602 214.47 672.341 214.861C672.081 215.382 671.69 215.643 671.299 215.773C671.169 215.903 670.909 215.903 670.648 215.903Z" fill="#B76C39"/>
<path d="M633.538 382.122C633.408 372.873 633.538 364.276 633.538 364.146H634.32C634.32 364.276 634.189 372.873 634.32 381.992L633.538 382.122Z" fill="#1C2123"/>
<path d="M648.772 470.572C648.642 469.791 648.381 468.749 648.251 467.706C647.21 461.975 645.647 453.247 643.043 450.121L643.694 449.6C646.298 452.856 647.861 461.323 649.032 467.576C649.163 468.618 649.423 469.66 649.553 470.442L648.772 470.572Z" fill="#1C2123"/>
<path d="M593.432 431.753L593.172 431.102C596.948 429.669 599.552 427.585 600.073 426.803L600.724 427.194C599.943 428.236 597.208 430.32 593.432 431.753Z" fill="#1C2123"/>
<path d="M219.349 355.678L216.484 393.325L223.385 393.195L231.328 355.548L219.349 355.678Z" fill="#1F2323"/>
<path d="M611.406 351.64L615.052 389.156L608.021 389.286L599.297 351.77L611.406 351.64Z" fill="#1F2323"/>
<path d="M613.488 233.359C609.451 248.209 610.102 271.396 609.321 285.856L414.792 305.526L220.002 289.894C218.96 275.565 219.09 252.377 214.793 237.527C210.497 222.677 208.023 212.516 216.877 211.474C225.731 210.432 413.88 209.65 413.88 209.65C413.88 209.65 602.029 206.654 610.883 207.436C619.738 208.348 617.394 218.508 613.488 233.359Z" fill="#92B3B7"/>
<path d="M210.626 230.753C197.866 234.401 182.111 241.956 177.944 244.692C172.866 247.948 168.699 257.327 169.871 274.001C171.043 290.675 177.814 337.571 182.111 345.778C186.407 354.115 197.345 361.279 211.928 361.67C226.511 362.061 415.442 361.67 415.442 361.67C415.442 361.67 414.53 312.169 414.791 295.235C415.051 282.338 372.213 284.683 349.817 284.683C323.385 284.683 274.688 286.116 257.11 286.116C247.214 286.116 236.798 290.024 236.798 290.024C236.798 290.024 236.016 262.408 229.115 247.818C222.084 233.359 216.615 229.06 210.626 230.753Z" fill="#A3BFC1"/>
<path d="M415.181 341.479L214.011 343.563C198.777 343.694 194.089 337.18 191.355 330.146C188.62 322.981 181.719 295.105 179.766 281.557C177.683 267.358 177.683 244.561 184.584 240.914L184.844 241.435C178.464 244.822 178.204 266.837 180.287 281.557C182.37 295.235 189.141 322.981 191.876 330.016C195.001 337.962 199.818 343.172 214.011 343.042L415.181 340.958V341.479Z" fill="#749799"/>
<path d="M659.058 268.921C658.146 285.595 652.417 332.621 648.381 340.958C644.344 349.295 633.407 356.72 618.824 357.371C604.24 358.023 415.44 361.54 415.44 361.54C415.44 361.54 415.44 315.817 414.789 297.189L609.449 295.235C604.501 292.108 598.772 288.591 592.652 285.595C592.782 281.166 593.563 257.327 599.553 244.04C606.194 229.32 611.532 225.022 617.652 226.715C621.949 227.887 626.636 229.451 631.063 231.144C639.917 234.531 647.86 238.309 650.724 240.002C654.631 242.347 659.969 252.247 659.058 268.921Z" fill="#A3BFC1"/>
<path d="M616.35 339.395L415.18 341.479V340.958L616.35 338.874C630.412 338.743 635.23 333.403 638.225 325.326C640.829 318.161 647.079 290.285 648.771 276.607C650.594 261.887 649.813 239.872 643.433 236.615L643.693 236.094C650.594 239.611 651.115 262.408 649.292 276.607C647.599 290.285 641.219 318.292 638.615 325.456C636.141 332.621 631.714 339.264 616.35 339.395Z" fill="#749799"/>
<path d="M609.451 295.235L414.791 297.189C414.791 296.407 414.791 295.756 414.661 295.104C414.14 282.208 456.978 283.771 479.374 283.25C505.806 282.599 554.503 283.641 572.081 282.859C586.665 282.078 592.394 286.246 592.394 286.246C592.394 286.246 592.394 285.986 592.394 285.595C598.774 288.721 604.503 292.108 609.451 295.235Z" fill="#ACC0C1"/>
<path d="M220.133 299.273L414.792 297.319C414.792 296.538 414.792 295.886 414.792 295.235C415.053 282.339 372.215 284.683 349.819 284.683C323.387 284.683 274.69 286.637 257.112 286.116C242.528 285.725 236.799 290.024 236.799 290.024C236.799 290.024 236.799 289.764 236.799 289.373C230.68 292.499 224.95 296.016 220.133 299.273Z" fill="#ACC0C1"/>
<path d="M195 336.659C195 334.575 195.391 327.019 202.031 316.989C209.062 306.437 220.26 297.188 235.364 289.373L235.755 290.154C203.854 306.437 195.651 327.019 195.781 336.659H195Z" fill="#749799"/>
<path d="M635.359 332.23H634.447C634.447 322.59 625.724 302.269 593.562 286.637L593.953 285.725C609.187 293.15 620.646 302.139 627.807 312.56C634.708 322.59 635.359 330.146 635.359 332.23Z" fill="#749799"/>
<path d="M415.212 294.314L414.301 294.323L414.992 361.664L415.903 361.654L415.212 294.314Z" fill="#749799"/>
<path d="M258.022 233.88C258.022 235.052 257.111 235.964 255.939 235.964C254.767 235.964 253.855 235.052 253.855 233.88C253.855 232.707 254.767 231.795 255.939 231.795C257.111 231.795 258.022 232.838 258.022 233.88Z" fill="#749799"/>
<path d="M310.628 233.88C310.628 235.052 309.716 235.964 308.544 235.964C307.372 235.964 306.461 235.052 306.461 233.88C306.461 232.707 307.372 231.795 308.544 231.795C309.716 231.795 310.628 232.707 310.628 233.88Z" fill="#749799"/>
<path d="M363.229 233.88C363.229 235.052 362.318 235.964 361.146 235.964C359.974 235.964 359.062 235.052 359.062 233.88C359.062 232.707 359.974 231.795 361.146 231.795C362.318 231.795 363.229 232.707 363.229 233.88Z" fill="#749799"/>
<path d="M415.831 233.88C415.831 235.052 414.919 235.964 413.747 235.964C412.576 235.964 411.664 235.052 411.664 233.88C411.664 232.707 412.576 231.795 413.747 231.795C414.789 231.795 415.7 232.707 415.831 233.88Z" fill="#749799"/>
<path d="M468.307 233.88C468.307 235.052 467.396 235.964 466.224 235.964C465.052 235.964 464.141 235.052 464.141 233.88C464.141 232.707 465.052 231.795 466.224 231.795C467.396 231.795 468.307 232.707 468.307 233.88Z" fill="#749799"/>
<path d="M520.909 233.88C520.909 235.052 519.997 235.964 518.825 235.964C517.654 235.964 516.742 235.052 516.742 233.88C516.742 232.707 517.654 231.795 518.825 231.795C519.997 231.795 520.909 232.707 520.909 233.88Z" fill="#749799"/>
<path d="M573.514 233.88C573.514 235.052 572.603 235.964 571.431 235.964C570.259 235.964 569.348 235.052 569.348 233.88C569.348 232.707 570.259 231.795 571.431 231.795C572.603 231.795 573.514 232.707 573.514 233.88Z" fill="#749799"/>
<path d="M258.413 263.189C258.413 264.362 257.501 265.273 256.329 265.273C255.158 265.273 254.246 264.362 254.246 263.189C254.246 262.017 255.158 261.105 256.329 261.105C257.371 261.105 258.283 262.017 258.413 263.189Z" fill="#749799"/>
<path d="M310.885 263.189C310.885 264.362 309.974 265.273 308.802 265.273C307.63 265.273 306.719 264.362 306.719 263.189C306.719 262.017 307.63 261.105 308.802 261.105C309.974 261.105 310.885 262.017 310.885 263.189Z" fill="#749799"/>
<path d="M363.491 263.189C363.491 264.362 362.579 265.273 361.408 265.273C360.236 265.273 359.324 264.362 359.324 263.189C359.324 262.017 360.236 261.105 361.408 261.105C362.579 261.105 363.491 262.017 363.491 263.189Z" fill="#749799"/>
<path d="M416.096 263.189C416.096 264.362 415.185 265.273 414.013 265.273C412.841 265.273 411.93 264.362 411.93 263.189C411.93 262.017 412.841 261.105 414.013 261.105C415.185 261.105 416.096 262.017 416.096 263.189Z" fill="#749799"/>
<path d="M468.698 263.189C468.698 264.362 467.786 265.273 466.615 265.273C465.443 265.273 464.531 264.362 464.531 263.189C464.531 262.017 465.443 261.105 466.615 261.105C467.786 261.105 468.698 262.017 468.698 263.189Z" fill="#749799"/>
<path d="M521.171 263.189C521.171 264.362 520.259 265.273 519.087 265.273C517.915 265.273 517.004 264.362 517.004 263.189C517.004 262.017 517.915 261.105 519.087 261.105C520.259 261.105 521.171 262.017 521.171 263.189Z" fill="#749799"/>
<path d="M573.776 263.189C573.776 264.362 572.865 265.273 571.693 265.273C570.521 265.273 569.609 264.362 569.609 263.189C569.609 262.017 570.521 261.105 571.693 261.105C572.865 261.105 573.776 262.017 573.776 263.189Z" fill="#749799"/>
<path d="M649.161 348.774C646.427 350.598 639.526 356.59 638.484 357.632C637.443 358.674 628.328 362.973 627.156 363.364C625.984 363.755 624.552 363.494 624.422 362.452C622.208 363.755 619.735 361.931 621.167 359.977C621.037 359.977 619.995 360.628 618.563 361.149C617.13 361.801 615.047 360.498 616.219 359.195C617.391 357.893 627.026 349.686 626.245 349.035C625.333 348.383 621.818 349.686 620.125 350.207C618.432 350.728 616.87 349.165 618.693 347.602C620.516 346.169 627.547 342.782 630.281 341.87C633.016 340.958 634.578 341.61 636.661 340.958C639.656 339.525 642.26 338.092 644.604 336.529L649.161 348.774Z" fill="#EFAA7B"/>
<path d="M689.265 287.028C689.265 287.028 685.099 322.461 682.755 326.108C680.411 329.755 652.417 346.82 649.292 348.904C648.51 349.686 644.734 336.659 644.734 336.659C653.328 330.798 658.276 323.893 665.568 316.078C662.833 305.787 662.312 295.496 661.531 290.936C680.672 292.369 689.265 287.028 689.265 287.028Z" fill="#EFAA7B"/>
<path d="M621.43 360.368L621.039 359.717C622.341 359.065 627.81 354.246 627.94 354.115L628.461 354.636C628.2 354.897 622.862 359.586 621.43 360.368Z" fill="#B76C39"/>
<path d="M624.549 362.843L624.289 362.061C625.591 361.67 629.888 358.153 631.45 356.851L631.971 357.372C631.841 357.632 626.372 362.322 624.549 362.843Z" fill="#B76C39"/>
<path d="M121.565 277.78C121.565 277.78 119.742 300.055 120.002 305.005C120.262 309.955 120.653 313.472 128.726 315.035C136.799 316.599 145.913 318.162 153.465 317.901C161.017 317.641 170.913 314.645 173.127 315.035C174.819 315.426 180.939 318.683 183.934 319.595C186.928 320.507 192.918 321.549 194.741 321.028C196.434 320.376 195.652 319.334 194.22 319.074C192.788 318.813 188.1 317.25 187.71 316.859C187.319 316.468 197.215 315.947 199.298 313.863C201.251 311.909 198.517 311.518 196.954 312.039C195.522 312.56 190.444 312.821 189.142 312.3C187.71 311.909 198.387 310.346 199.949 308.131C201.642 305.917 199.168 305.787 197.215 306.308C195.262 306.829 189.663 308.262 188.231 308.262C186.798 308.131 196.303 305.396 197.866 303.833C199.428 302.269 197.215 301.879 195.392 302.4C193.569 302.921 186.929 304.223 185.366 303.833C183.804 303.442 183.152 303.963 182.632 302.921C182.111 301.879 183.934 301.097 184.585 301.097C185.236 301.097 187.059 301.358 187.97 300.706C188.751 299.925 187.71 298.752 186.538 298.231C185.366 297.71 183.152 297.189 183.152 297.189C183.152 297.189 178.335 298.492 177.814 298.883C177.293 299.273 175.731 302.269 175.21 302.66C174.689 303.051 168.309 305.135 167.137 304.744C165.965 304.484 157.892 303.312 153.726 300.576C149.559 297.971 142.788 295.235 141.486 294.714C141.486 294.714 145.523 288.201 146.174 287.028C140.575 282.339 129.637 277.389 121.565 277.78Z" fill="#EFAA7B"/>
<path d="M131.721 297.58L131.461 296.928C133.805 295.756 138.362 294.193 141.357 294.584L141.226 295.365C138.362 294.974 133.935 296.407 131.721 297.58Z" fill="#B76C39"/>
</g>
<path d="M26.8042 464.623C24.5622 469.14 26.8042 475.431 32.8896 478.496C38.975 481.723 47.4625 480.594 49.7045 476.077C51.9465 471.56 48.4234 465.752 42.4981 462.687C36.4127 459.622 29.0462 460.267 26.8042 464.623Z" fill="#444444"/>
<path d="M55.3079 464.785C55.1478 468.011 52.7457 474.787 49.703 476.238L47.7812 467.043C47.7812 467.043 52.7457 464.946 53.7065 464.301C54.6674 463.494 55.3079 464.139 55.3079 464.785Z" fill="#444444"/>
<path d="M38.1705 462.203C38.1705 462.203 35.1278 455.267 34.6473 453.492C34.1669 451.556 32.0851 452.685 31.1242 454.299C30.1634 455.912 28.8822 461.558 29.2025 463.817L38.1705 462.203Z" fill="#444444"/>
<path d="M43.1364 473.979C43.4567 473.979 43.777 473.979 43.9372 473.818C44.0973 473.818 44.0973 473.657 44.0973 473.495C44.0973 473.334 43.9371 473.334 43.777 473.334C43.2966 473.495 42.3357 473.495 41.535 473.011C40.8944 472.689 40.5742 472.205 40.414 471.721C40.414 471.56 40.2539 471.56 40.0937 471.56C39.9336 471.56 39.9336 471.721 39.9336 471.882C40.0937 472.527 40.5742 473.011 41.2147 473.495C41.8553 473.818 42.4959 473.979 43.1364 473.979Z" fill="#070707"/>
<path d="M33.5271 468.656C33.8474 468.656 34.0075 468.656 34.3278 468.495C34.4879 468.495 34.4879 468.334 34.4879 468.172C34.4879 468.011 34.3278 468.011 34.1676 468.011C33.0466 468.334 31.4452 467.85 30.9648 466.398C30.9648 466.236 30.8047 466.236 30.6445 466.236C30.4844 466.236 30.4844 466.398 30.4844 466.559C31.1249 468.011 32.4061 468.656 33.5271 468.656Z" fill="#070707"/>
<path d="M33.2116 471.882C32.8913 472.366 33.2116 473.011 33.8521 473.334C34.4927 473.657 35.1333 473.657 35.4536 473.173C35.7739 472.689 35.4536 472.043 34.813 471.721C34.1724 471.398 33.3717 471.559 33.2116 471.882Z" fill="#1C1C1C"/>
<path d="M47.3003 476.238C49.7024 480.433 51.1437 482.046 53.706 483.336C56.2682 484.627 66.0369 492.532 69.8803 504.631C73.7237 516.73 69.56 533.023 65.2362 537.217C60.7522 541.412 50.343 542.702 43.7771 542.057C37.2113 541.573 23.4391 539.96 18.4747 540.928C13.5103 541.896 8.54585 543.186 6.30385 547.542C4.222 551.897 -0.582265 549.962 0.058304 545.606C0.698873 541.25 2.94087 537.701 11.1081 536.249C19.2754 534.797 29.044 534.475 29.044 534.475C24.3999 528.022 27.2825 521.247 30.165 518.343C33.0476 515.278 35.4497 514.471 35.4497 514.471C35.4497 514.471 36.5707 510.277 34.1686 501.243C31.6063 492.209 27.9231 482.691 30.165 474.625L47.3003 476.238Z" fill="#444444"/>
<path d="M34.8108 476.4C35.1311 476.4 35.6115 476.4 35.7716 476.238C35.9318 476.238 35.9318 476.077 35.9318 475.916C35.9318 475.754 35.7716 475.754 35.6115 475.754C35.1311 475.916 34.3304 475.916 33.6898 475.593C33.3695 475.432 33.2094 475.109 33.2094 474.786V474.464H32.8891C32.2485 474.625 31.6079 474.464 31.1275 473.98C30.8072 473.657 30.4869 473.173 30.6471 472.85C30.6471 472.689 30.6471 472.689 30.4869 472.528C30.3268 472.528 30.3268 472.528 30.1667 472.689C30.0065 473.173 30.3268 473.818 30.8072 474.302C31.4478 474.786 32.0884 475.109 32.7289 474.948C32.8891 475.27 33.0492 475.593 33.3695 475.754C33.8499 476.4 34.3304 476.4 34.8108 476.4Z" fill="#070707"/>
<path d="M33.6557 473.28L32.7266 474.974L33.1471 475.208L34.0762 473.514L33.6557 473.28Z" fill="#070707"/>
<path d="M35.7695 514.955C38.3318 513.988 40.4136 513.342 41.8549 512.858C43.1361 512.374 43.7766 512.213 43.9368 512.052L43.7766 511.729C43.6165 511.89 42.8158 512.052 41.6948 512.536C40.2535 513.02 38.1717 513.665 35.6094 514.633L35.7695 514.955Z" fill="#070707"/>
<path d="M35.769 535.443C39.9327 535.443 41.8544 534.637 43.4558 533.83L43.2957 533.346C41.2138 534.314 38.4914 535.605 29.3633 534.475V534.959C31.9256 535.282 34.0074 535.443 35.769 535.443Z" fill="#070707"/>
<path d="M38.1712 480.432V479.948C33.8473 479.142 32.5662 478.335 30.4843 476.722L30.164 476.561L29.8438 476.883L30.164 477.045C32.406 478.658 33.6872 479.626 38.1712 480.432Z" fill="#070707"/>
<defs>
<clipPath id="clip0_0_1">
<rect width="455" height="490" fill="white" transform="translate(617)"/>
</clipPath>
<clipPath id="clip1_0_1">
<rect width="421.5" height="33.6" fill="white" transform="translate(636 456)"/>
</clipPath>
<clipPath id="clip2_0_1">
<rect width="596" height="368" fill="white" transform="translate(108 175)"/>
</clipPath>
<clipPath id="clip3_0_1">
<rect width="596" height="37" fill="white" transform="translate(108 508)"/>
</clipPath>
</defs>
</svg>
